<?xml version="1.0" encoding="utf-8"?>
<!-- Generator: Adobe Illustrator 14.0.0, SVG Export Plug-In . SVG Version: 6.00 Build 43363)  -->
<!DOCTYPE svg PUBLIC "-//W3C//DTD SVG 1.1//EN" "http://www.w3.org/Graphics/SVG/1.1/DTD/svg11.dtd">
<svg version="1.1" id="Layer_1" xmlns="http://www.w3.org/2000/svg" xmlns:xlink="http://www.w3.org/1999/xlink" x="0px" y="0px"
	 width="310.417px" height="307.292px" viewBox="0 0 310.417 307.292" enable-background="new 0 0 310.417 307.292"
	 xml:space="preserve">
<rect x="-16.667" y="-14.583" fill="#169DBD" width="336.458" height="333.333"/>
<g>
	<g>
		<g>
			<path fill="#169DBD" d="M238.252,226.823c-1.307,2.675-4.536,5.999-7.17,7.392l-51.773,27.39
				c-2.628,1.396-7.198,2.198-10.154,1.771l-57.971-8.276c-2.951-0.418-7.119-2.462-9.258-4.538l-42.039-40.767
				c-2.143-2.07-4.313-6.177-4.822-9.108L45.013,142.99c-0.513-2.941,0.14-7.522,1.457-10.2l25.784-52.59
				c1.312-2.675,4.538-6.008,7.18-7.401l51.758-27.383c2.638-1.398,7.208-2.197,10.159-1.769l57.983,8.272
				c2.944,0.418,7.109,2.462,9.248,4.533l42.043,40.771c2.139,2.075,4.314,6.172,4.821,9.111l10.047,57.7
				c0.519,2.934-0.14,7.534-1.446,10.199L238.252,226.823z"/>
		</g>
	</g>
	<g>
		<path fill="#FFFFFF" d="M167.746,112.104l-11.446-10.796l1.917-2.036l9.642,9.1l4.878-5.171l1.807,1.699L167.746,112.104z"/>
		<path fill="#FFFFFF" d="M168.521,91.966l2.68,2.536l3.566-3.782l1.731,1.625l-3.566,3.784l3.422,3.235l4.903-5.189l1.802,1.711
			l-6.816,7.213l-11.448-10.8l6.9-7.302l1.807,1.699L168.521,91.966z"/>
		<path fill="#FFFFFF" d="M183.833,93.789l-1.106-2.467c1.321-0.271,2.344-0.8,3.075-1.573c1.126-1.199,1.271-2.182,0.439-2.971
			c-0.393-0.367-0.896-0.58-1.517-0.63c-0.62-0.052-1.563,0.151-2.834,0.616c-1.26,0.463-2.19,0.708-2.76,0.748
			c-0.569,0.03-1.125-0.049-1.669-0.255c-0.552-0.203-1.062-0.53-1.542-0.976c-0.878-0.836-1.308-1.854-1.279-3.053
			s0.522-2.311,1.483-3.316c1.248-1.324,2.415-2.066,3.494-2.225l1.162,2.275c-1.183,0.234-2.148,0.743-2.899,1.537
			c-0.443,0.467-0.659,0.945-0.648,1.445c0.005,0.488,0.195,0.915,0.597,1.291c0.658,0.621,2.026,0.534,4.104-0.244
			c1.102-0.417,1.96-0.642,2.6-0.681c0.636-0.042,1.242,0.051,1.831,0.263c0.583,0.215,1.139,0.57,1.657,1.058
			c0.92,0.875,1.34,1.961,1.25,3.256c-0.093,1.303-0.719,2.559-1.881,3.795C186.382,92.746,185.202,93.441,183.833,93.789z"/>
		<path fill="#FFFFFF" d="M151.869,166.53l-3.3,3.498l-11.442-10.795c1.386-1.605,2.366-2.727,2.95-3.347
			c1.12-1.179,2.254-1.871,3.394-2.066c1.135-0.187,2.176,0.166,3.119,1.049c0.91,0.866,1.181,2.013,0.798,3.471
			c1.831-0.957,3.525-0.703,5.08,0.759c1.036,0.98,1.489,2.16,1.367,3.52C153.694,163.982,153.045,165.288,151.869,166.53z
			 M140.664,158.737l2.75,2.593c0.308-0.295,0.634-0.609,0.961-0.954c1.242-1.328,1.368-2.465,0.382-3.396
			c-0.882-0.829-1.895-0.646-3.034,0.555C141.43,157.852,141.075,158.258,140.664,158.737z M144.997,162.826l3.776,3.571
			c0.43-0.38,0.767-0.702,1.009-0.954c0.85-0.907,1.316-1.712,1.396-2.408c0.079-0.697-0.234-1.383-0.953-2.055
			c-0.648-0.616-1.302-0.877-1.961-0.77c-0.653,0.104-1.428,0.621-2.324,1.568C145.753,161.976,145.445,162.328,144.997,162.826z"/>
		<path fill="#FFFFFF" d="M164.006,153.669l-3.109-1.354l-3.701,3.918l1.572,2.99l-2.134,2.256l-7.296-15.508l0.84-0.89l15.948,6.34
			L164.006,153.669z M153.26,148.825l2.926,5.363l2.596-2.752L153.26,148.825z"/>
		<path fill="#FFFFFF" d="M167.416,150.051l-11.443-10.801l1.92-2.035l9.64,9.096l4.882-5.168l1.797,1.699L167.416,150.051z"/>
		<path fill="#FFFFFF" d="M176.522,140.406l-11.446-10.8l1.92-2.036l9.639,9.097l4.884-5.168l1.801,1.709L176.522,140.406z"/>
		<path fill="#FFFFFF" d="M177.895,119.633l2.685,2.524l3.566-3.775l1.727,1.627l-3.571,3.778l3.437,3.243l4.894-5.193l1.802,1.703
			l-6.808,7.225l-11.446-10.808l6.89-7.306l1.802,1.699L177.895,119.633z"/>
		<path fill="#FFFFFF" d="M189.119,107.748l9.645,9.092l-1.924,2.035l-9.635-9.101l-3.44,3.642l-1.808-1.705l8.945-9.477
			l1.807,1.699L189.119,107.748z"/>
		<path fill="#FFFFFF" d="M202.6,111.495l-1.11-2.463c1.322-0.275,2.348-0.801,3.076-1.579c1.129-1.19,1.271-2.177,0.444-2.971
			c-0.393-0.366-0.902-0.57-1.519-0.625c-0.62-0.057-1.563,0.146-2.829,0.616c-1.27,0.458-2.194,0.714-2.768,0.747
			c-0.566,0.035-1.125-0.051-1.672-0.25c-0.541-0.209-1.055-0.528-1.526-0.977c-0.889-0.84-1.312-1.862-1.288-3.053
			c0.028-1.204,0.523-2.309,1.479-3.326c1.252-1.323,2.414-2.066,3.497-2.22l1.162,2.275c-1.181,0.229-2.143,0.738-2.895,1.536
			c-0.439,0.467-0.662,0.946-0.659,1.437c0.006,0.497,0.206,0.929,0.603,1.306c0.659,0.609,2.026,0.528,4.108-0.254
			c1.092-0.418,1.96-0.642,2.597-0.682c0.634-0.042,1.246,0.049,1.834,0.263c0.583,0.225,1.134,0.575,1.652,1.058
			c0.931,0.875,1.34,1.965,1.247,3.256c-0.085,1.302-0.711,2.565-1.873,3.795C205.154,110.455,203.963,111.158,202.6,111.495z"/>
		<path fill="#FFFFFF" d="M128.536,205.236l1.326,3.581c-1.307,0.041-2.666,0.805-4.066,2.289c-1.335,1.414-1.835,3.14-1.503,5.154
			c0.332,2.019,1.405,3.882,3.222,5.602c1.812,1.71,3.646,2.645,5.499,2.817c1.858,0.164,3.445-0.448,4.762-1.847
			c1.513-1.604,2.12-3.389,1.831-5.366l3.753,0.891c0.14,2.462-0.901,4.869-3.142,7.24c-2.231,2.369-4.748,3.479-7.549,3.317
			c-2.796-0.154-5.541-1.509-8.235-4.051c-2.507-2.366-3.917-5.073-4.229-8.121c-0.313-3.041,0.603-5.706,2.74-7.966
			C124.782,206.828,126.646,205.654,128.536,205.236z"/>
		<path fill="#FFFFFF" d="M158.049,206.121l-3.543,3.765l-16.951-15.993c2.185-2.476,3.557-4.031,4.146-4.646
			c2.329-2.467,4.901-3.739,7.712-3.82c2.81-0.083,5.416,1.004,7.801,3.256C163.316,194.44,163.596,200.25,158.049,206.121z
			 M143.022,193.362l11.578,10.929c0.504-0.448,1.022-0.953,1.554-1.513c1.433-1.52,2.007-3.23,1.717-5.134
			c-0.294-1.901-1.433-3.79-3.412-5.658c-3.627-3.429-7.03-3.445-10.224-0.078C143.932,192.237,143.53,192.716,143.022,193.362z"/>
		<path fill="#FFFFFF" d="M157.653,177.925l3.973,3.744l5.295-5.599l2.554,2.416l-5.29,5.603l5.078,4.796l7.26-7.693l2.672,2.523
			l-10.09,10.704l-16.959-16.006l10.215-10.825l2.669,2.522L157.653,177.925z"/>
		<path fill="#FFFFFF" d="M189.021,173.315l-16.966-16.003l2.833-3.013l14.29,13.48l7.231-7.665l2.679,2.523L189.021,173.315z"/>
		<path fill="#FFFFFF" d="M210.938,150.077l-4.604-2.009l-5.485,5.816l2.325,4.413l-3.155,3.351l-10.808-22.987l1.242-1.312
			l23.621,9.402L210.938,150.077z M195.024,142.904l4.332,7.948l3.848-4.081L195.024,142.904z"/>
		<path fill="#FFFFFF" d="M226.615,133.461l-4.887,5.189l-16.947-15.996c2.045-2.386,3.506-4.039,4.364-4.953
			c1.662-1.767,3.34-2.785,5.023-3.065c1.689-0.285,3.23,0.236,4.632,1.558c1.34,1.263,1.731,2.983,1.172,5.135
			c2.717-1.422,5.229-1.043,7.515,1.118c1.551,1.454,2.223,3.201,2.027,5.215C229.327,129.688,228.361,131.62,226.615,133.461z
			 M210.019,121.919l4.065,3.831c0.467-0.427,0.943-0.901,1.425-1.41c1.853-1.959,2.039-3.637,0.56-5.033
			c-1.299-1.23-2.791-0.951-4.478,0.835C211.147,120.61,210.63,121.2,210.019,121.919z M216.432,127.972l5.607,5.287
			c0.625-0.561,1.126-1.029,1.476-1.405c1.273-1.347,1.961-2.533,2.077-3.566c0.116-1.043-0.351-2.059-1.409-3.058
			c-0.967-0.906-1.933-1.286-2.899-1.139c-0.976,0.152-2.128,0.926-3.45,2.33C217.553,126.715,217.091,127.225,216.432,127.972z"/>
	</g>
	<g>
		<path fill="#FFFFFF" d="M180.949,241.431l-49.622-0.047c-6.55-0.005-15.307-3.639-19.929-8.276l-35.05-35.117
			c-4.622-4.628-8.24-13.389-8.235-19.931l0.05-49.614c0.005-6.547,3.637-15.303,8.278-19.923l35.103-35.052
			c4.635-4.622,13.383-8.233,19.928-8.233l49.631,0.039c6.544,0.012,15.293,3.645,19.915,8.28l35.054,35.109
			c4.628,4.638,8.246,13.4,8.235,19.943l-0.046,49.614c-0.006,6.548-3.642,15.303-8.271,19.922l-35.112,35.041
			C196.251,237.806,187.494,241.431,180.949,241.431L180.949,241.431z M131.482,69.572c-5.365,0-13.086,3.196-16.873,6.97
			l-35.106,35.043c-3.8,3.791-6.998,11.508-7.007,16.865l-0.042,49.619c-0.005,5.353,3.184,13.076,6.969,16.86l35.046,35.121
			c3.785,3.788,11.502,6.998,16.862,6.999l49.606,0.045l0.011,2.169v-2.169c5.359,0,13.076-3.192,16.867-6.97l35.11-35.053
			c3.792-3.779,7.003-11.499,7.003-16.855l0.047-49.607c0.005-5.364-3.185-13.085-6.971-16.877L197.95,76.619
			c-3.775-3.791-11.502-6.996-16.852-7L131.482,69.572L131.482,69.572z"/>
	</g>
</g>
</svg>
