<?xml version="1.0" encoding="utf-8"?>
<!-- Generator: Adobe Illustrator 14.0.0, SVG Export Plug-In . SVG Version: 6.00 Build 43363)  -->
<!DOCTYPE svg PUBLIC "-//W3C//DTD SVG 1.1//EN" "http://www.w3.org/Graphics/SVG/1.1/DTD/svg11.dtd">
<svg version="1.1" id="Layer_1" xmlns="http://www.w3.org/2000/svg" xmlns:xlink="http://www.w3.org/1999/xlink" x="0px" y="0px"
	 width="310.417px" height="307.292px" viewBox="0 0 310.417 307.292" enable-background="new 0 0 310.417 307.292"
	 xml:space="preserve">
<rect x="-18.75" y="-12.5" fill="#FFFEF8" width="348.958" height="336.458"/>
<g>
	<g>
		<path fill="#48C179" d="M192.537,156.979h-80.913V76.065C156.307,76.065,192.537,112.281,192.537,156.979z"/>
		<path fill="#FFFFFF" d="M127.411,105.132c0,4.677,3.783,8.454,8.453,8.454c4.671,0,8.46-3.777,8.46-8.454
			c0-4.67-3.789-8.454-8.46-8.454C131.193,96.679,127.411,100.462,127.411,105.132z"/>
		<path fill="#FFFFFF" d="M146.249,113.586c0,0,8.063,3.131,6.263,5.349C150.71,121.16,146.249,113.586,146.249,113.586z"/>
		<path fill="#FFFFFF" d="M136.458,117.409c0,0,3.711,7.802,0.873,8.18C134.481,125.955,136.458,117.409,136.458,117.409z"/>
		<path fill="#FFFFFF" d="M125.694,114.056c0,0-3.621,7.854-5.721,5.911C117.861,118.022,125.694,114.056,125.694,114.056z"/>
		<path d="M129.458,104.062c0,2.864,2.336,5.199,5.206,5.199s5.191-2.334,5.191-5.199c0-2.87-2.322-5.206-5.191-5.206
			S129.458,101.192,129.458,104.062z"/>
		<path fill="#F4EDB0" d="M111.624,117.174v39.987c-18.511,0-33.535-17.907-33.535-39.987H111.624z"/>
		<path fill="#E5DC70" d="M111.624,76.065v41.226H70.386C70.386,94.52,88.846,76.065,111.624,76.065z"/>
		<path fill="#E22B58" d="M111.624,156.593h80.913v80.906C147.841,237.499,111.624,201.282,111.624,156.593z"/>
		<path fill="#FFFFFF" d="M176.731,208.419c0-4.664-3.783-8.44-8.447-8.44c-4.671,0-8.454,3.776-8.454,8.44
			c0,4.684,3.783,8.467,8.454,8.467C172.948,216.886,176.731,213.103,176.731,208.419z"/>
		<path fill="#FFFFFF" d="M157.892,199.979c0,0-8.055-3.118-6.269-5.35C153.45,192.411,157.892,199.979,157.892,199.979z"/>
		<path fill="#FFFFFF" d="M167.684,196.162c0,0-3.706-7.808-0.861-8.186C169.667,187.604,167.684,196.162,167.684,196.162z"/>
		<path fill="#FFFFFF" d="M178.459,199.509c0,0,3.602-7.854,5.715-5.91C186.287,195.542,178.459,199.509,178.459,199.509z"/>
		<path d="M174.845,209.28c0-2.864-2.328-5.193-5.204-5.193c-2.871,0-5.206,2.329-5.206,5.193c0,2.869,2.335,5.205,5.206,5.205
			C172.517,214.485,174.845,212.149,174.845,209.28z"/>
		<path fill="#F4EDB0" d="M192.537,196.396v-39.987c18.5,0,33.516,17.908,33.516,39.987H192.537z"/>
		<path fill="#E5DC70" d="M192.537,237.499v-41.213h41.213C233.75,219.038,215.289,237.499,192.537,237.499z"/>
	</g>
</g>
</svg>
